<svg xmlns="http://www.w3.org/2000/svg" width="100%" height="100%">
    <defs>
        <linearGradient id="bg-git_code" x1="0%" y1="0%" x2="100%" y2="100%">
            <stop offset="0%" stop-color="#f8fafc" />
            <stop offset="100%" stop-color="#f1f5f9" />
        </linearGradient>
        <linearGradient id="accent-git_code" x1="0%" y1="0%" x2="100%" y2="100%">
            <stop offset="0%" stop-color="#374151" />
            <stop offset="100%" stop-color="#1f2937" />
        </linearGradient>
        <pattern id="grid-git_code" width="30" height="30" patternUnits="userSpaceOnUse">
            <path d="M 30 0 L 0 0 0 30" fill="none" stroke="#e2e8f0" stroke-width="1" />
        </pattern>
        
    </defs>
    
    <rect width="100%" height="100%" fill="url(#bg-git_code)" />
    <rect width="100%" height="100%" fill="url(#grid-git_code)" opacity="0.6" />
    
    <svg viewBox="0 0 1000 300" preserveAspectRatio="xMidYMid meet" width="100%" height="100%">
        <g transform="translate(500, 150)">
            
            <line x1="-300" y1="0" x2="300" y2="0" stroke="#1f2937" stroke-width="8"/>
            <circle cx="-200" cy="0" r="20" fill="#1f2937"/>
            <circle cx="0" cy="0" r="20" fill="#1f2937"/>
            <circle cx="200" cy="0" r="20" fill="#1f2937"/>
            <path d="M -150 0 C -100 -80 -50 -80 0 -80 L 100 -80 C 150 -80 170 -40 200 0" fill="none" stroke="#3b82f6" stroke-width="8"/>
            <circle cx="0" cy="-80" r="16" fill="#3b82f6"/>
            <circle cx="100" cy="-80" r="16" fill="#3b82f6"/>
        
        </g>
    </svg>
    
    <rect x="0" y="100%" transform="translate(0, -6)" width="100%" height="6" fill="url(#accent-git_code)" />
</svg>