<svg xmlns="http://www.w3.org/2000/svg" viewBox="0 0 800 400" width="100%" height="100%">
    <defs>
        <linearGradient id="bg-s2b2b" x1="0%" y1="0%" x2="100%" y2="100%">
            <stop offset="0%" stop-color="#f3f4f6" />
            <stop offset="100%" stop-color="#e5e7eb" />
        </linearGradient>
        <linearGradient id="accent-s2b2b" x1="0%" y1="0%" x2="100%" y2="100%">
            <stop offset="0%" stop-color="#374151" />
            <stop offset="100%" stop-color="#1f2937" />
        </linearGradient>
        <pattern id="grid" width="40" height="40" patternUnits="userSpaceOnUse">
            <path d="M 40 0 L 0 0 0 40" fill="none" stroke="#d1d5db" stroke-width="1" />
        </pattern>
        
            <marker id="arrow-s2b2b" viewBox="0 0 10 10" refX="5" refY="5" markerWidth="6" markerHeight="6" orient="auto-start-reverse">
                <path d="M 0 0 L 10 5 L 0 10 z" fill="#6b7280" />
            </marker>
        
    </defs>
    <rect width="100%" height="100%" fill="url(#bg-s2b2b)" />
    <rect width="100%" height="100%" fill="url(#grid)" opacity="0.5" />
    
    <g transform="translate(400, 200)">
        
            <rect x="-160" y="-40" width="80" height="80" rx="10" fill="#1f2937"/>
            <text x="-120" y="5" font-family="sans-serif" font-size="20" fill="#fff" font-weight="bold" text-anchor="middle">S</text>
            
            <path d="M -80 0 L -30 0" stroke="#6b7280" stroke-width="3" marker-end="url(#arrow-s2b2b)"/>
            
            <rect x="-20" y="-40" width="80" height="80" rx="10" fill="#fff" stroke="#1f2937" stroke-width="4"/>
            <text x="20" y="5" font-family="sans-serif" font-size="20" fill="#1f2937" font-weight="bold" text-anchor="middle">B</text>
            
            <path d="M 60 0 L 110 0" stroke="#6b7280" stroke-width="3" marker-end="url(#arrow-s2b2b)"/>
            
            <rect x="120" y="-40" width="80" height="80" rx="10" fill="#f3f4f6" stroke="#9ca3af" stroke-width="3"/>
            <text x="160" y="5" font-family="sans-serif" font-size="20" fill="#4b5563" font-weight="bold" text-anchor="middle">b</text>
        
    </g>
    
    <text x="30" y="40" font-family="-apple-system, sans-serif" font-size="24" font-weight="bold" fill="#111827" letter-spacing="1">S2B2B ARCHITECTURE</text>
    <text x="30" y="70" font-family="-apple-system, sans-serif" font-size="14" font-weight="normal" fill="#4b5563">Supplier -> Business -> Business</text>
    
    <rect x="0" y="390" width="800" height="10" fill="url(#accent-s2b2b)" />
</svg>