<svg xmlns="http://www.w3.org/2000/svg" viewBox="0 0 800 400" width="100%" height="100%">
    <defs>
        <linearGradient id="bg-workflow" x1="0%" y1="0%" x2="100%" y2="100%">
            <stop offset="0%" stop-color="#f3f4f6" />
            <stop offset="100%" stop-color="#e5e7eb" />
        </linearGradient>
        <linearGradient id="accent-workflow" x1="0%" y1="0%" x2="100%" y2="100%">
            <stop offset="0%" stop-color="#374151" />
            <stop offset="100%" stop-color="#1f2937" />
        </linearGradient>
        <pattern id="grid" width="40" height="40" patternUnits="userSpaceOnUse">
            <path d="M 40 0 L 0 0 0 40" fill="none" stroke="#d1d5db" stroke-width="1" />
        </pattern>
        
            <marker id="arrow" viewBox="0 0 10 10" refX="5" refY="5" markerWidth="6" markerHeight="6" orient="auto-start-reverse">
                <path d="M 0 0 L 10 5 L 0 10 z" fill="#1f2937" />
            </marker>
        
    </defs>
    <rect width="100%" height="100%" fill="url(#bg-workflow)" />
    <rect width="100%" height="100%" fill="url(#grid)" opacity="0.5" />
    
    <g transform="translate(400, 200)">
        
            <rect x="-200" y="-50" width="80" height="100" rx="8" fill="#fff" stroke="#1f2937" stroke-width="3"/>
            <text x="-160" y="5" font-family="sans-serif" font-size="14" fill="#1f2937" font-weight="bold" text-anchor="middle">START</text>
            
            <path d="M -120 0 L -70 0" stroke="#1f2937" stroke-width="4" marker-end="url(#arrow)"/>
            
            <rect x="-70" y="-50" width="100" height="100" rx="8" fill="#fff" stroke="#374151" stroke-width="3"/>
            <text x="-20" y="-5" font-family="sans-serif" font-size="14" fill="#1f2937" font-weight="bold" text-anchor="middle">LLM Node</text>
            <text x="-20" y="15" font-family="sans-serif" font-size="10" fill="#6b7280" text-anchor="middle">Analyze Data</text>
            
            <path d="M 30 0 L 80 0" stroke="#1f2937" stroke-width="4" marker-end="url(#arrow)"/>
            
            <rect x="80" y="-50" width="100" height="100" rx="8" fill="#1f2937" />
            <text x="130" y="5" font-family="sans-serif" font-size="14" fill="#fff" font-weight="bold" text-anchor="middle">END</text>
        
    </g>
    
    <text x="30" y="40" font-family="-apple-system, sans-serif" font-size="24" font-weight="bold" fill="#111827" letter-spacing="1">WORKFLOW CANVAS</text>
    <text x="30" y="70" font-family="-apple-system, sans-serif" font-size="14" font-weight="normal" fill="#4b5563">Multi-Step Logic Orchestration</text>
    
    <rect x="0" y="390" width="800" height="10" fill="url(#accent-workflow)" />
</svg>