<svg xmlns="http://www.w3.org/2000/svg" viewBox="0 0 800 400" width="100%" height="100%">
    <defs>
        <linearGradient id="bg-chrome_research" x1="0%" y1="0%" x2="100%" y2="100%">
            <stop offset="0%" stop-color="#f3f4f6" />
            <stop offset="100%" stop-color="#e5e7eb" />
        </linearGradient>
        <linearGradient id="accent-chrome_research" x1="0%" y1="0%" x2="100%" y2="100%">
            <stop offset="0%" stop-color="#374151" />
            <stop offset="100%" stop-color="#1f2937" />
        </linearGradient>
        <pattern id="grid" width="40" height="40" patternUnits="userSpaceOnUse">
            <path d="M 40 0 L 0 0 0 40" fill="none" stroke="#d1d5db" stroke-width="1" />
        </pattern>
        
    </defs>
    <rect width="100%" height="100%" fill="url(#bg-chrome_research)" />
    <rect width="100%" height="100%" fill="url(#grid)" opacity="0.5" />
    
    <g transform="translate(400, 200)">
        
            <rect x="-150" y="-100" width="300" height="200" rx="8" fill="#fff" stroke="#1f2937" stroke-width="4"/>
            <rect x="-150" y="-100" width="300" height="30" rx="0" fill="#f3f4f6"/>
            <circle cx="-130" cy="-85" r="5" fill="#e5e7eb"/>
            <circle cx="-115" cy="-85" r="5" fill="#e5e7eb"/>
            <circle cx="-100" cy="-85" r="5" fill="#e5e7eb"/>
            <rect x="-80" y="-92" width="200" height="14" rx="7" fill="#fff" stroke="#d1d5db" stroke-width="1"/>
            
            <rect x="-120" y="-50" width="240" height="40" rx="4" fill="#e5e7eb"/>
            <rect x="-120" y="0" width="100" height="80" rx="4" fill="#f3f4f6" stroke="#9ca3af" stroke-dasharray="4,4"/>
            <rect x="-10" y="0" width="130" height="20" rx="4" fill="#e5e7eb"/>
            <rect x="-10" y="30" width="130" height="20" rx="4" fill="#e5e7eb"/>
            
            <path d="M 50 80 L 70 50 L 90 80 Z" fill="#1f2937" transform="rotate(-30 70 50) translate(0 10)"/>
            <circle cx="70" cy="50" r="6" fill="#ef4444" opacity="0.8"/>
        
    </g>
    
    <text x="30" y="40" font-family="-apple-system, sans-serif" font-size="24" font-weight="bold" fill="#111827" letter-spacing="1">AUTOMATED CHROME</text>
    <text x="30" y="70" font-family="-apple-system, sans-serif" font-size="14" font-weight="normal" fill="#4b5563">Web Scraping & DOM Interaction</text>
    
    <rect x="0" y="390" width="800" height="10" fill="url(#accent-chrome_research)" />
</svg>